<?xml version="1.0" standalone="no"?>
<!DOCTYPE svg PUBLIC "-//W3C//DTD SVG 20010904//EN"
 "http://www.w3.org/TR/2001/REC-SVG-20010904/DTD/svg10.dtd">
<svg version="1.0" xmlns="http://www.w3.org/2000/svg"
 width="700.000000pt" height="700.000000pt" viewBox="0 0 700.000000 700.000000"
 preserveAspectRatio="xMidYMid meet">
<g transform="translate(0.000000,700.000000) scale(0.100000,-0.100000)"
fill="#000000" stroke="none">
<path d="M7 6993 c-4 -3 -7 -1578 -7 -3500 l0 -3493 3500 0 3500 0 0 3500 0
3500 -3493 0 c-1922 0 -3497 -3 -3500 -7z m3886 -1212 c402 -71 731 -214 1040
-448 187 -142 406 -382 518 -566 19 -31 39 -57 45 -57 6 0 138 34 294 76 155
42 283 74 285 72 6 -5 -338 -1288 -345 -1288 -10 0 -944 939 -939 944 3 3 126
38 274 77 149 40 274 75 278 79 12 10 -85 148 -189 268 -334 388 -797 637
-1334 718 -139 21 -450 24 -590 6 -1008 -133 -1761 -890 -1870 -1877 -5 -49
-10 -120 -10 -157 0 -37 -4 -78 -10 -92 -18 -48 -99 -47 -119 2 -15 37 1 272
29 428 60 333 199 655 402 930 99 134 320 356 449 452 331 244 708 396 1116
447 162 21 524 13 676 -14z m-267 -1319 c118 -540 202 -905 206 -895 4 10 70
322 148 693 77 371 144 683 148 694 5 11 73 -403 172 -1045 90 -585 166 -1075
170 -1088 4 -16 29 77 74 276 l69 300 364 8 c200 4 366 6 368 4 2 -2 7 -32 10
-65 l7 -61 -53 -6 c-30 -4 -174 -7 -321 -7 -148 0 -268 -2 -268 -5 0 -13 -261
-1152 -268 -1168 -4 -11 -75 424 -172 1052 -90 589 -167 1065 -171 1058 -3 -6
-66 -299 -140 -649 -74 -351 -136 -638 -139 -638 -3 0 -86 368 -184 818 -98
449 -183 837 -189 862 l-11 45 -12 -75 c-6 -41 -92 -634 -190 -1317 -99 -683
-181 -1239 -183 -1237 -3 2 -89 509 -191 1127 l-186 1122 -120 -485 -120 -485
-70 -3 c-38 -2 -214 -1 -391 3 l-323 7 0 64 0 64 339 0 339 0 183 740 c101
407 186 740 189 740 3 0 78 -447 168 -993 90 -545 167 -1000 170 -1010 4 -9
88 545 187 1233 99 687 182 1246 186 1242 4 -4 96 -418 205 -920z m2148 -983
c24 -19 26 -26 26 -94 0 -92 -16 -255 -36 -360 -82 -445 -281 -827 -598 -1153
-194 -198 -380 -334 -621 -452 -337 -164 -645 -234 -1035 -235 -218 0 -311 9
-490 46 -583 120 -1107 469 -1427 950 -36 55 -73 99 -80 99 -8 0 -141 -34
-295 -75 -154 -42 -281 -75 -283 -73 -3 5 339 1276 346 1282 6 6 949 -921 949
-933 0 -3 -118 -37 -263 -75 -144 -38 -272 -73 -285 -78 -23 -8 -23 -8 19 -69
209 -309 493 -553 834 -719 312 -152 612 -221 965 -221 271 0 467 30 710 110
316 104 571 258 808 486 392 376 606 838 643 1389 11 163 12 170 42 184 32 15
41 14 71 -9z"/>
<path d="M5460 4559 c-222 -60 -406 -112 -409 -115 -5 -5 599 -614 609 -614 4
0 55 183 115 408 59 224 110 413 113 420 2 6 -2 12 -9 11 -8 0 -196 -50 -419
-110z"/>
<path d="M1346 3149 c-3 -7 -55 -198 -114 -422 -87 -324 -106 -408 -93 -404 9
2 196 52 416 111 220 59 403 108 408 109 4 1 -132 141 -303 312 -206 206 -311
304 -314 294z"/>
</g>
</svg>
